/* XPM */
static char *e8a6fac0d03b47a79ed8f3355649552e[] = {
/* columns rows colors chars-per-pixel */
"16 16 86 1 ",
"  c gray45",
". c gray52",
"X c gray54",
"o c gray56",
"O c #929292",
"+ c #939393",
"@ c gray58",
"# c #959595",
"$ c gray59",
"% c #979797",
"& c #989898",
"* c gray60",
"= c #9A9A9A",
"- c #9B9B9B",
"; c gray61",
": c #9D9D9D",
"> c #9F9F9F",
", c #A0A0A0",
"< c gray63",
"1 c #A2A2A2",
"2 c gray64",
"3 c #A4A4A4",
"4 c #A5A5A5",
"5 c gray65",
"6 c #A7A7A7",
"7 c gray66",
"8 c #A9A9A9",
"9 c #AAAAAA",
"0 c gray67",
"q c gray68",
"w c #AEAEAE",
"e c #AFAFAF",
"r c gray69",
"t c #B1B1B1",
"y c #B2B2B2",
"u c gray70",
"i c #B4B4B4",
"p c gray71",
"a c #B6B6B6",
"s c #B7B7B7",
"d c gray72",
"f c #B9B9B9",
"g c gray73",
"h c #BBBBBB",
"j c #BCBCBC",
"k c gray74",
"l c gray",
"z c gray75",
"x c #C0C0C0",
"c c #C1C1C1",
"v c #C3C3C3",
"b c gray77",
"n c #C5C5C5",
"m c #C6C6C6",
"M c gray78",
"N c #C8C8C8",
"B c gray79",
"V c #CACACA",
"C c #CBCBCB",
"Z c gray80",
"A c #CDCDCD",
"S c #CECECE",
"D c gray81",
"F c gray82",
"G c #D2D2D2",
"H c LightGray",
"J c gray83",
"K c #D5D5D5",
"L c #D7D7D7",
"P c #D8D8D8",
"I c gray86",
"U c gainsboro",
"Y c #DDDDDD",
"T c #DFDFDF",
"R c #E1E1E1",
"E c gray90",
"W c #E6E6E6",
"Q c #E7E7E7",
"! c #EAEAEA",
"~ c gray92",
"^ c #EFEFEF",
"/ c #F1F1F1",
"( c #F4F4F4",
") c gray97",
"_ c #FDFDFD",
"` c None",
/* pixels */
"`````llpply`````",
"```ly0eggyyp+```",
"``g0gxmSSmmmm&``",
"`l0gmYPKFPPNNN+`",
"`ygFKNPKNSKKNmg`",
"l0xNQ/eP~RxSlll;",
"gyg;PxN1ESyE0eg0",
"plx;YS_.p4E)y&ee",
"pll;Fp~.m;PQ&&yy",
"gy0%EFR S%%)Sege",
"x10&lN4+41oplpx0",
"`014%%&4&14X&pg`",
"`m%;1;;1;&%0gm0`",
"``x;440140egxy``",
"```x0ypyplNg0```",
"`````40ype4`````"
};
