/* XPM */
static char *ccd2dbcfd53f49b8abf2dcd68f6ffdec[] = {
/* columns rows colors chars-per-pixel */
"64 64 184 2 ",
"   c black",
".  c #060606",
"X  c #090909",
"o  c gray4",
"O  c #0C0C0C",
"+  c gray5",
"@  c #0E0E0E",
"#  c #151515",
"$  c #181818",
"%  c #1B1B1B",
"&  c gray13",
"*  c #252525",
"=  c #272727",
"-  c #2A2A2A",
";  c gray17",
":  c #2C2C2C",
">  c #393939",
",  c #3E3E3E",
"<  c #434343",
"1  c #4C4C4C",
"2  c #535353",
"3  c gray33",
"4  c gray34",
"5  c gray35",
"6  c #5A5A5A",
"7  c #5B5B5B",
"8  c gray36",
"9  c #606060",
"0  c #626262",
"q  c gray39",
"w  c #646464",
"e  c #656565",
"r  c gray40",
"t  c #676767",
"y  c #686868",
"u  c gray42",
"i  c #6C6C6C",
"p  c #6D6D6D",
"a  c gray43",
"s  c #6F6F6F",
"d  c gray44",
"f  c #717171",
"g  c #727272",
"h  c gray45",
"j  c #747474",
"k  c gray46",
"l  c #767676",
"z  c #777777",
"x  c gray47",
"c  c #797979",
"v  c gray48",
"b  c #7B7B7B",
"n  c #7C7C7C",
"m  c gray49",
"M  c gray50",
"N  c #808080",
"B  c #818181",
"V  c gray51",
"C  c #838383",
"Z  c #848484",
"A  c gray52",
"S  c #868686",
"D  c gray53",
"F  c #888888",
"G  c #898989",
"H  c gray54",
"J  c #8B8B8B",
"K  c gray55",
"L  c #8D8D8D",
"P  c #8E8E8E",
"I  c gray56",
"U  c #909090",
"Y  c gray57",
"T  c #929292",
"R  c #939393",
"E  c gray58",
"W  c #959595",
"Q  c gray59",
"!  c #979797",
"~  c #989898",
"^  c gray60",
"/  c #9A9A9A",
"(  c #9B9B9B",
")  c gray61",
"_  c #9D9D9D",
"`  c gray62",
"'  c #9F9F9F",
"]  c #A0A0A0",
"[  c gray63",
"{  c #A2A2A2",
"}  c gray64",
"|  c #A4A4A4",
" . c #A5A5A5",
".. c gray65",
"X. c #A7A7A7",
"o. c gray66",
"O. c #A9A9A9",
"+. c #AAAAAA",
"@. c gray67",
"#. c #ACACAC",
"$. c gray68",
"%. c #AEAEAE",
"&. c #AFAFAF",
"*. c gray69",
"=. c #B1B1B1",
"-. c #B2B2B2",
";. c gray70",
":. c #B4B4B4",
">. c gray71",
",. c #B6B6B6",
"<. c #B7B7B7",
"1. c gray72",
"2. c #B9B9B9",
"3. c gray73",
"4. c #BBBBBB",
"5. c #BCBCBC",
"6. c gray74",
"7. c gray",
"8. c gray75",
"9. c #C0C0C0",
"0. c #C1C1C1",
"q. c gray76",
"w. c #C3C3C3",
"e. c gray77",
"r. c #C5C5C5",
"t. c #C6C6C6",
"y. c gray78",
"u. c #C8C8C8",
"i. c gray79",
"p. c #CACACA",
"a. c #CBCBCB",
"s. c gray80",
"d. c #CDCDCD",
"f. c #CECECE",
"g. c gray81",
"h. c #D0D0D0",
"j. c gray82",
"k. c #D2D2D2",
"l. c LightGray",
"z. c gray83",
"x. c #D5D5D5",
"c. c gray84",
"v. c #D7D7D7",
"b. c #D8D8D8",
"n. c gray85",
"m. c #DADADA",
"M. c gray86",
"N. c gainsboro",
"B. c #DDDDDD",
"V. c gray87",
"C. c #DFDFDF",
"Z. c gray88",
"A. c #E1E1E1",
"S. c #E2E2E2",
"D. c gray89",
"F. c #E4E4E4",
"G. c gray90",
"H. c #E6E6E6",
"J. c #E7E7E7",
"K. c gray91",
"L. c #E9E9E9",
"P. c #EAEAEA",
"I. c gray92",
"U. c #ECECEC",
"Y. c gray93",
"T. c #EEEEEE",
"R. c #EFEFEF",
"E. c gray94",
"W. c #F1F1F1",
"Q. c gray95",
"!. c #F3F3F3",
"~. c #F4F4F4",
"^. c gray96",
"/. c #F6F6F6",
"(. c gray97",
"). c #F8F8F8",
"_. c #F9F9F9",
"`. c gray98",
"'. c #FBFBFB",
"]. c gray99",
"[. c #FDFDFD",
"{. c #FEFEFE",
"}. c gray100",
"|. c None",
/* pixels */
"|.|.|.|.|.|.|.|.|.|.|.|.|.|.|.|.|.|.|.|.|.|.|.|.|.|.|.|.|.|.|.|.|.|.|.|.|.|.|.|.|.|.|.|.|.|.|.|.|.|.|.|.|.|.|.|.|.|.|.|.|.|.|.|.",
"|.|.|.|.|.|.|.|.|.|.|.|.|.|.|.|.|.|.|.|.|.|.|.|.|.|.|.D.D.V.V.M.M.M.M.D.V.|.|.|.|.|.|.|.|.|.|.|.|.|.|.|.|.|.|.|.|.|.|.|.|.|.|.|.",
"|.|.|.|.|.|.|.|.|.|.|.|.|.|.|.|.|.|.|.|.|.|.|.D.M.s.0.o.! K B B B B G ! [ <.0.r.u.|.|.|.|.|.|.|.|.|.|.|.|.|.|.|.|.|.|.|.|.|.|.|.",
"|.|.|.|.|.|.|.|.|.|.|.|.|.|.|.|.|.|.|.|.D.M.8.! c l g l B G ! ( ( ! T Z c l l c G ..<.3.|.|.|.|.|.|.|.|.|.|.|.|.|.|.|.|.|.|.|.|.",
"|.|.|.|.|.|.|.|.|.|.|.|.|.|.|.|.|.|.H.M.$.l 0 s K o.0.k.M.V.D.D.D.D.V.V.v.r.-.( B s l T o.$.|.|.|.|.|.|.|.|.|.|.|.|.|.|.|.|.|.|.",
"|.|.|.|.|.|.|.|.|.|.|.|.|.|.|.|.D.v.) g u ! <.s.D.H.V.v.M.V.V.V.V.V.V.M.M.M.V.D.k.3.o.Z c K ) ..|.|.|.|.|.|.|.|.|.|.|.|.|.|.|.|.",
"|.|.|.|.|.|.|.|.|.|.|.|.|.|.|.L.<.e 8 ( s.H.D.M.V.D.D.M.r.8.-.$.o.-.3.u.v.V.D.V.M.V.D.v.<.Z l K ) ! |.|.|.|.|.|.|.|.|.|.|.|.|.|.",
"|.|.|.|.|.|.|.|.|.|.|.|.|.D.k.K e K u.H.M.M.D.M.3.) T Z B Z Z G G Z B Z Z T [ <.k.D.M.v.D.k.$.G Z ! T |.|.|.|.|.|.|.|.|.|.|.|.|.",
"|.|.|.|.|.|.|.|.|.|.|.|.H.r.e e 0.L.V.M.D.k.[ c s B ( -.r.s.v.M.V.v.s.r.-.( Z l c [ u.D.M.M.D.s.( Z T T |.|.|.|.|.|.|.|.|.|.|.|.",
"|.|.|.|.|.|.|.|.|.|.|.H.-.7 Z v.V.v.D.k.[ l l ) r.V.D.V.M.v.k.k.k.v.v.M.V.D.V.u...B m [ s.V.v.M.V.-.G K K |.|.|.|.|.|.|.|.|.|.|.",
"|.|.|.|.|.|.|.|.|.|.H...4 ( H.M.v.H.o.e m 3.V.D.V.k.k.k.k.k.k.k.k.k.k.k.k.k.k.M.V.M.0.K l o.V.M.v.V.0.! ! G |.|.|.|.|.|.|.|.|.|.",
"|.|.|.|.|.|.|.|.|.H.o.2 ..H.v.D.M.G u ..V.D.k.k.k.k.k.k.k.k.k.k.k.k.k.k.k.k.k.k.k.v.V.V.-.B K k.V.k.D.r.! ! G |.|.|.|.|.|.|.|.|.",
"|.|.|.|.|.|.|.|.H.-.4 ..H.k.D.u.s B k.L.v.k.k.k.k.k.k.k.k.k.k.k.k.k.k.k.k.k.k.k.k.k.s.v.D.k.( Z 0.V.k.M.u.[ ( Z |.|.|.|.|.|.|.|.",
"|.|.|.|.|.|.|.H.r.8 ) L.v.H.0.7 T L.V.s.k.k.k.k.k.k.k.k.k.k.k.k.k.k.k.k.k.k.k.k.k.k.k.k.k.M.D...c 8.D.k.V.r.[ ( Z |.|.|.|.|.|.|.",
"|.|.|.|.|.|.|.k.e Z D.v.D.8.u [ D.v.s.k.k.k.k.k.k.k.k.k.k.k.k.k.k.k.k.k.k.k.k.k.k.k.k.k.k.k.v.M.<.K 3.M.k.M.3...! Z |.|.|.|.|.|.",
"|.|.|.|.|.|.L.K 0 M.M.D.u.7 [ R.v.k.k.k.k.k.k.k.k.k.k.s.k.k.k.k.k.k.k.k.k.k.k.k.k.k.k.k.k.k.s.v.H.3.G 0.v.k.k.<...K |.|.|.|.|.|.",
"|.|.|.|.|.D.-.e 0.D.v.v.s T D.v.s.k.k.k.k.k.k.k.k.k.k.k.k.k.k.k.k.k.k.k.k.k.k.k.k.s.k.k.k.k.k.k.k.M.<.! r.k.s.u.<...G |.|.|.|.|.",
"|.|.|.|.|.v.e K L.k.H.G B L.M.s.k.k.k.k.k.k.k.k.k.k.k.k.k.k.k.k.k.k.k.k.k.k.k.k.k.k.k.k.k.k.k.k.k.k.M.$...u.u.u.8.<.) |.|.|.|.|.",
"|.|.|.|.H.[ 0 u.M.D.o.e k.V.k.k.k.k.k.k.k.k.k.k.s.k.k.k.k.k.k.k.k.k.k.k.k.k.k.k.k.k.k.k.k.s.k.k.k.s.s.s...-.u.0.0.3.$.Z |.|.|.|.",
"|.|.|.|.M.s ( H.M.k.u ..H.k.k.k.k.k.k.k.k.k.k.k.k.k.k.k.k.k.k.k.k.k.k.k.k.k.k.k.k.k.k.k.k.k.k.s.u.s.u.s.8...8.0.8.3.8.( B |.|.|.",
"|.|.|.D.o.s s.M.D.[ m V.v.s.k.k.k.k.k.k.k.k.k.k.k.k.k.k.k.k.k.k.k.k.k.k.v.k.k.k.k.s.k.k.k.s.u.u.u.u.r.r.r.<.-.8.3.<.0.<.Z |.|.|.",
"|.|.|.M.c ! H.v.k.c 3.D.k.k.M.v.s.k.s.k.s.k.s.k.k.k.k.M.k.s.k.s.s.k.k.s.s.s.s.s.v.v.u.r.r.u.u.r.r.r.8.8.0.3.<.<.<.<.<.u.) |.|.|.",
"|.|.|.8.0 <.D.D.[ l M.v.k.k.V.v.k.k.k.k.k.k.k.u.s.k.v.V.v.k.k.k.k.k.k.k.k.k.k.s.s.v.s.u.r.r.r.0.0.0.8.8.3.3.3.3.-.-.-.u.-.Z |.|.",
"|.|.D.! s s.M.v.l ( D.k.V.u.= ) _._._._._._./.R.v.D.o.= u._._._._._._._._._._./.T & M._._.k.3.8.8.3.3.<.<.-.3.0.-.$.$.0.0.G |.|.",
"|.|.M.c G D.V.8.s r.V.k.D.r.  Z }.}.}.}.}.}.}.}.}._.T   s.}.}.}.}.}.}.}.}.}.}.}.l   v.}.}.v.-.3.3.3.<.<.-.-.-.r.<.o...<.u.T |.|.",
"|.|.k.g o.D.D.) B M.k.k.D.u.  T }.}.W.u.M.}.}.}.}.}.!   [ V.D.}.}.}.}.W.M.M.W.}.m   v.}.}.k.$.<.-.-.-.-.$.$.o.0.3.....$.k...|.|.",
"|.|.8.g 0.V.D.T ( H.k.k.D.u.  K }.}.v.G 7 > r.}.}.}.r.g K ..m % r.}.}.s.m Z <.H.c   k.}.}.s.[ $.$.-.-.$.$.$...3.r.......s.3.B |.",
"|.D.o.l k.M.v.Z $.V.k.k.D.u.  T }.}.W.H.H.    }.}.}.D.R.V.R.$.  -.}.}.H.8.v.k.v.Z o M.}.}.s.o.<.-.$.$.o.o.o.[ -.u.o.[ ) u.r.G |.",
"|.D.( B M.M.r.B 0.M.k.k.V.u.  K }.}.L.0.}.:   _.}.}.v.r.u.V...  3.}.}.D.s.4 1 _./.W.}.}.}.}._._.k.( o.......[ ..s.$.( ( 8.k.K |.",
"|.V.K G V.M.8.Z s.v.k.k.D.u.  K }.}.R.v.s.& l }.}./.r.r.r.M.[   <.}.}.D.M.% . }.}.}.}.}.}.}.}.}.M.T ........) [ s.<.( ! <.v.! |.",
"|.V.Z ! V.V.-.G v.v.k.k.D.u.  T }.}.}.}.R./.}.}._.k.8.0.0.v.)   3.}.}.V.k.= + M.D.R.}.}.}.H.V.W.k.! [ [ [ [ ) ( s.8.! ! -.V.( |.",
"|.M.Z ( D.V.$.G M.k.k.k.V.u.  T }.}.}.}.}.}.}.}.D.<.8.8.0.k.)   3.}.}.V.o.$.) ( 2   v.}.}.o.g ! ....[ [ ) [ [ ( k.r.! ( $.D.[ |.",
"|.M.Z ( D.D.$.K v.k.k.v.D.u.  K }.}.W.k.k.}.}.}._.H.-.8.3.s.(   <.}.}.M.o.m Z _.v...W.}.}./.H.D.8.! ) [ [ [ [ ) k.r.! ! $.D.[ |.",
"|.V.Z ( V.V.-.G v.v.k.k.V.r.  T }.}.k.Z 0 = ( }.}.}.u.$.<.r.!   3.}.}.M.r.# o }.}.}.}.}.}.}.}.}.v.G [ [ [ ) ) ) k.0.! ! -.H.) |.",
"|.V.K T V.M.8.Z s.v.s.s.M.0.  K }.}.L.u.H.,   M.}.}.V...-.r.!   3.}.}.v.8.% o _.}.}.}.}.}.}.}.}.M.K [ [ [ [ ) ) M.8.! ! <.D.( |.",
"|.V.! G V.v.r.Z 0.k.u.u.v.8.  T }.}.H.-.V...  3.}.}.H...$.0.K   3.}.}.v...g 8 ) c < D.}.}.<.G $.-.) ) [ [ [ ) ..V.-.! ! 8.H.T |.",
"|.D...m k.k.s.G $.v.r.r.k.8.  K }.}.V.[ u.=   L.}.}.V.) $.8.G   3.}.}.v.K 3.3.<.4   k.}.}.$.g B G T T ! [ [ ( $.D.o.( ! u.V.G |.",
"|.|.3.c 0.k.v.! ) v.r.r.s.3.  T }.}.R.s.3.7 u.}.}.}.u.) o.3.K   3.}.}.k.T ) ) <.s   v.}.}.k.<.8.8.8.8.$.) [ T 0.D.) ( ( V.k.B |.",
"|.|.s.m $.v.v.[ G u.0.8.u.<.  T }.}.}.}.}.}.}.}.}./.[ ....<.G   3.}.}.v.T [ [ 3.s   v.}.}.}.}.}.}.}.}.M.K ) ! M.k.! ( [ R.3.m |.",
"|.|.v.B ( k.s.-.m 3.r.3.r.-.  ! }.}.}.}.}.}.}.}./.o.( ....<.B   r.}.}.M.K ) [ 3.e   H.}.}.}.}.}.}.}.}.M.T ( ..R.8.T ! <.W.[ |.|.",
"|.|.M.! B 0.u.0.Z ) r.<.0.$.@ B M.v.v.v.v.H.L.k...( ....[ -.G o ) M.L.s.T [ [ <.g o <.M.M.v.v.v.v.v.R.u.! T 8./.o.( ! s.L.K |.|.",
"|.|.|.<.l -.u.r.[ G 3.<.-.-.o.) ! ! ! T T ( [ ! ) ..) [ [ ) [ ( K K ( [ [ [ ) [ [ ( K G G G G G G G ( [ ) ! D.M.! ( [ R.v.B |.|.",
"|.|.|.s.B [ r.8.-.G o.<.$.-.3.-.o.$.o.o.o...) ..[ [ [ [ [ ) [ $.o.[ ) ) [ [ [ ) ..$.[ [ ..[ [ [ [ ..) [ ! o.W.<.T T -.}.3.|.|.|.",
"|.|.|.D...B 3.3.8.[ T -.$.o...o.o.........[ [ ) [ ) [ [ [ [ [ [ [ ) [ [ [ [ [ [ ) [ [ [ [ [ [ [ [ ) [ ) ! V.M.! ) ! k.W.T |.|.|.",
"|.|.|.|.u.B ..3.<.$.K ) $.........[ [ [ [ [ [ ) [ [ [ ) [ [ [ [ [ [ [ [ [ ) [ [ [ [ [ [ ) [ [ [ [ [ [ T <.}.$.T ! [ }.r.c |.|.|.",
"|.|.|.|.D.[ Z -.-.-.) ! ..o.[ ..[ [ [ [ ) [ [ [ [ ) [ [ [ ) [ [ ) [ [ [ [ [ ) [ [ [ [ [ [ [ [ [ [ [ ( ) R.M.! ) ! v.R.K |.|.|.|.",
"|.|.|.|.|.r.B ) <.$.$.) ) [ [ [ [ [ [ [ [ [ [ [ [ [ ) [ [ ) [ ) [ [ [ ) [ [ ) [ ) [ [ [ [ [ [ ) [ ) K v.W.) ! T -.}.0.l |.|.|.|.",
"|.|.|.|.|.V.$.G o.o.o.o.) [ [ [ ) [ [ ) [ [ ) [ [ [ [ [ [ [ [ [ [ [ [ [ [ [ [ [ [ [ ) [ ) [ [ [ ) ! u._.$.! ) ! D.R.T |.|.|.|.|.",
"|.|.|.|.|.|.M.( T o.....[ ..[ ) [ [ [ [ ) [ ) [ [ [ ) [ [ ) [ [ [ [ [ [ [ [ [ [ [ [ ) [ [ [ [ ) K 3.}.0.T ) K 0.}.o.|.|.|.|.|.|.",
"|.|.|.|.|.|.V.0.T ) ....[ [ o...) [ [ [ [ [ [ [ [ [ [ [ [ [ [ [ [ [ ) [ [ [ ) [ [ [ [ [ [ [ ) ! 8.W.s.! ) ! <.}.s.c |.|.|.|.|.|.",
"|.|.|.|.|.|.|.V.<.T [ ) [ ) ..-...) ) [ [ [ [ [ [ [ [ [ [ [ [ [ [ [ ) [ [ ) [ [ ) [ [ [ [ ( K u.}.u.K ) ! ) /.R.G |.|.|.|.|.|.|.",
"|.|.|.|.|.|.|.|.M.o.( [ [ [ ) [ <.-.[ ) [ [ ) [ [ [ [ ) [ [ ) [ [ [ [ [ [ [ [ ) [ [ [ ) T ) v./.r.! ) ( ) D./.( |.|.|.|.|.|.|.|.",
"|.|.|.|.|.|.|.|.|.v.o.) ..) [ ) ..<.8.o.) ) ) ) ) [ ) [ [ [ [ [ ) [ [ [ [ [ [ [ [ ) ! ! <.W.W.$.T ) T ) R.}.) |.|.|.|.|.|.|.|.|.",
"|.|.|.|.|.|.|.|.|.|.v.$.[ ..) [ ) ) $.r.8.o.) ( ( [ [ [ [ [ ) [ [ [ [ ) ) [ [ ! T ( o.M.}.v.) ! ) ! ) H.}.$.c |.|.|.|.|.|.|.|.|.",
"|.|.|.|.|.|.|.|.|.|.|.v.-.o.o.) ) ) ( ..<.u.r.<...( ! ( ) ) [ [ [ [ ) ) ! T ! ..8.D./.M.$.! ( ) K -././.) c |.|.|.|.|.|.|.|.|.|.",
"|.|.|.|.|.|.|.|.|.|.|.|.k.3.-.$.[ ( ) ( ( o.3.k.k.u.3.$...) ) ( ( ( ) ..-.r.M.W./.v.<.! ! ) T ! r.}.W.( |.|.|.|.|.|.|.|.|.|.|.|.",
"|.|.|.|.|.|.|.|.|.|.|.|.|.s.8.3.<.o.) ( ) ) ( ..-.8.s.v.v.v.v.k.v.M.V.H.H.H.k.8.o.! ! ) ( ! -.D.}.s.G |.|.|.|.|.|.|.|.|.|.|.|.|.",
"|.|.|.|.|.|.|.|.|.|.|.|.|.|.r.8.8.0.8...( ( ) ) ! ( ( ..-.3.0.r.r.r.8.-.o.) ! T ( ( T T ..v.}.W.o.m |.|.|.|.|.|.|.|.|.|.|.|.|.|.",
"|.|.|.|.|.|.|.|.|.|.|.|.|.|.|.|.3.3.0.s.8.-...( ! ( ) ) ( ! ! ! ! ! ! ! ( ( ( T ! [ <.k._.R.0.T |.|.|.|.|.|.|.|.|.|.|.|.|.|.|.|.",
"|.|.|.|.|.|.|.|.|.|.|.|.|.|.|.|.|.|.$.-.r.k.k.0.-...( ( T ! ! ! ! ! T ! T ( ..<.s.R.}.W.0.K l |.|.|.|.|.|.|.|.|.|.|.|.|.|.|.|.|.",
"|.|.|.|.|.|.|.|.|.|.|.|.|.|.|.|.|.|.|.....$.8.u.M.V.v.u.8.3.-.-.-.-.3.0.k.D.R./.R.v.<.K c |.|.|.|.|.|.|.|.|.|.|.|.|.|.|.|.|.|.|.",
"|.|.|.|.|.|.|.|.|.|.|.|.|.|.|.|.|.|.|.|.|.|.( ( ( $.0.k.V.V.H.H.L.R.L.L.D.k.3.[ K B |.|.|.|.|.|.|.|.|.|.|.|.|.|.|.|.|.|.|.|.|.|.",
"|.|.|.|.|.|.|.|.|.|.|.|.|.|.|.|.|.|.|.|.|.|.|.|.|.|.Z G T ! ) [ [ [ ) ! G B c |.|.|.|.|.|.|.|.|.|.|.|.|.|.|.|.|.|.|.|.|.|.|.|.|.",
"|.|.|.|.|.|.|.|.|.|.|.|.|.|.|.|.|.|.|.|.|.|.|.|.|.|.|.|.|.|.|.|.|.|.|.|.|.|.|.|.|.|.|.|.|.|.|.|.|.|.|.|.|.|.|.|.|.|.|.|.|.|.|.|."
};
