/* XPM */
static char *de6e4c4144de4c9ab57702c20f9235d4[] = {
/* columns rows colors chars-per-pixel */
"32 32 145 2 ",
"   c #060606",
".  c #1D1D1D",
"X  c #323232",
"o  c #3E3E3E",
"O  c #414141",
"+  c #484848",
"@  c gray31",
"#  c #515151",
"$  c #555555",
"%  c #565656",
"&  c gray35",
"*  c #5B5B5B",
"=  c gray36",
"-  c #5F5F5F",
";  c #606060",
":  c gray39",
">  c #646464",
",  c #656565",
"<  c #676767",
"1  c gray42",
"2  c #6D6D6D",
"3  c gray43",
"4  c gray44",
"5  c gray46",
"6  c gray49",
"7  c gray50",
"8  c #838383",
"9  c gray52",
"0  c #868686",
"q  c gray53",
"w  c #888888",
"e  c gray54",
"r  c #8B8B8B",
"t  c gray55",
"y  c #8D8D8D",
"u  c #8E8E8E",
"i  c gray56",
"p  c #909090",
"a  c gray57",
"s  c #929292",
"d  c #939393",
"f  c gray58",
"g  c #959595",
"h  c gray59",
"j  c #979797",
"k  c #989898",
"l  c gray60",
"z  c #9A9A9A",
"x  c #9B9B9B",
"c  c gray61",
"v  c #9D9D9D",
"b  c gray62",
"n  c #9F9F9F",
"m  c #A0A0A0",
"M  c gray63",
"N  c #A2A2A2",
"B  c gray64",
"V  c #A4A4A4",
"C  c #A5A5A5",
"Z  c gray65",
"A  c #A7A7A7",
"S  c gray66",
"D  c #A9A9A9",
"F  c #AAAAAA",
"G  c gray67",
"H  c #ACACAC",
"J  c gray68",
"K  c #AEAEAE",
"L  c #AFAFAF",
"P  c gray69",
"I  c #B1B1B1",
"U  c #B2B2B2",
"Y  c gray70",
"T  c #B4B4B4",
"R  c gray71",
"E  c #B6B6B6",
"W  c #B7B7B7",
"Q  c gray72",
"!  c #B9B9B9",
"~  c gray73",
"^  c #BBBBBB",
"/  c #BCBCBC",
"(  c gray74",
")  c gray",
"_  c gray75",
"`  c #C0C0C0",
"'  c #C1C1C1",
"]  c gray76",
"[  c #C3C3C3",
"{  c gray77",
"}  c #C5C5C5",
"|  c #C6C6C6",
" . c gray78",
".. c #C8C8C8",
"X. c gray79",
"o. c #CACACA",
"O. c #CBCBCB",
"+. c gray80",
"@. c #CDCDCD",
"#. c #CECECE",
"$. c gray81",
"%. c #D0D0D0",
"&. c gray82",
"*. c #D2D2D2",
"=. c LightGray",
"-. c gray83",
";. c #D5D5D5",
":. c gray84",
">. c #D7D7D7",
",. c #D8D8D8",
"<. c gray85",
"1. c #DADADA",
"2. c gray86",
"3. c gainsboro",
"4. c #DDDDDD",
"5. c gray87",
"6. c #DFDFDF",
"7. c gray88",
"8. c #E1E1E1",
"9. c #E2E2E2",
"0. c gray89",
"q. c #E4E4E4",
"w. c gray90",
"e. c #E6E6E6",
"r. c gray91",
"t. c #E9E9E9",
"y. c gray92",
"u. c gray93",
"i. c #EEEEEE",
"p. c #EFEFEF",
"a. c gray94",
"s. c #F1F1F1",
"d. c gray95",
"f. c gray96",
"g. c #F6F6F6",
"h. c gray97",
"j. c #F8F8F8",
"k. c #F9F9F9",
"l. c gray98",
"z. c #FBFBFB",
"x. c gray99",
"c. c #FDFDFD",
"v. c #FEFEFE",
"b. c gray100",
"n. c None",
/* pixels */
"n.n.n.n.n.n.n.n.n.n.n.n.( J D A D D E n.n.n.n.n.n.n.n.n.n.n.n.n.",
"n.n.n.n.n.n.n.n.n.Q c g M J E Q E J A g p x n.n.n.n.n.n.n.n.n.n.",
"n.n.n.n.n.n.n.{ i g Q >.2.$.[ [ [ $.2.2.{ A i i n.n.n.n.n.n.n.n.",
"n.n.n.n.n.n.D w Q t.{ A A D D D D D A A [ t.$.c 9 n.n.n.n.n.n.n.",
"n.n.n.n.n.x i q.>.x M E O.2.4.4.4.2.$.E A c $.t.Q i n.n.n.n.n.n.",
"n.n.n.n.x g i.Q p Q 7.7.%.>.%.>.%.%.>.7.4.[ c Q t.{ p n.n.n.n.n.",
"n.n.n.D p i.J g 2.4.%.%.%.>.%.%.%.%.>.%.%.4.2.D Y q.O.p n.n.n.n.",
"n.n.{ w q.Q g 7.2.%.%.>.%.%.%.>.>.%.%.%.%.%.>.4.Y Q 4.Q i n.n.n.",
"n.n.i Q >.p 2.2.%.%.%.>.%.%.%.%.%.%.>.%.%.%.%.%.>.J ( $.D n.n.n.",
"n.Q x t.c Q q.%.$.$.$.$.>.>.%.%.%.$.$.>.2.$.$.$.$.[ Y [ { x n.n.",
"n.x Q { M 7.%.>.>.%.%.%.%.>.%.%.>.%.%.%.$.O.{ { ( ( Q E ( Y n.n.",
"n.g >.A Y j.2 J b.b.b.f.9 1 b.b.j.b.b.g 4 j.O.E Q E Q Q J ( p n.",
"Q M 2.A O.f.@ A b.D Q b.Q 2 Y ( b.>.i.= o b.Q M Y J J ( A ( M n.",
"J J %.D 2.a.= J b.w   t.b.7.2 # b.[ 9 E [ b.t.$.A D M Q A E Y n.",
"D E { D 4.a.= A b.i.( f.>.>.9 1 b.$.o >.b.b.a.7.c M x Q J Y E n.",
"D Q [ J 4.a.= D b.q.b.b.[ { 6 1 b.{ 6 x E b.$.( c c g Q Y J ( n.",
"D E { J 4.t.* J b.g @ 4.j.( 4 1 b.Q X a.b.b.b.t.g c g ( Y Y ( n.",
"Y D $.A >.7.% Y b.E . O.b.Q 2 1 b.[ 9 < w b.A i g c x [ D Q Q n.",
"Q A %.A ( 4.+ Y b.7.4.b.4.D < 1 b.[ Q O * b.a.7.i.Y g { c { E n.",
"n.x { A D >.% x q.f.b.4.M J 2 : t.Q D = < q.a.f.j.E A $.g %.c n.",
"n.M D E c Q J c c x M g x M M g x M M M g g g p c p O.E D >.n.n.",
"n.( x ( c M E D A M c M M M A A c c M A A M c M g J >.i $.Q n.n.",
"n.n.M c D c A M M M M M M M c M M M M M M M M c g 2.J M 4.n.n.n.",
"n.n.O.g A A M c M M c M M M M M M M c M M M c p >.{ 9 4.Q n.n.n.",
"n.n.n.Q g M A D c c M M M M M M M M M M M g g >.$.9 O.%.n.n.n.n.",
"n.n.n.n.Y g x A Y A x c c M M M M M c x g J 2.{ 9 ( q.n.n.n.n.n.",
"n.n.n.n.n.Q c x A E E J M x x g g g c Q O.>.J 9 O.7.p n.n.n.n.n.",
"n.n.n.n.n.n.[ J c x D Q ( ( Q [ [ { O.$.Q w M 4.%.n.n.n.n.n.n.n.",
"n.n.n.n.n.n.n.[ Q E D x x A J Y Y J x g A O.4.Q n.n.n.n.n.n.n.n.",
"n.n.n.n.n.n.n.n.n.E ( [ ( Q Y Y Y Q O.%.>.( n.n.n.n.n.n.n.n.n.n.",
"n.n.n.n.n.n.n.n.n.n.n.M J E ( ( [ ( Y c n.n.n.n.n.n.n.n.n.n.n.n.",
"n.n.n.n.n.n.n.n.n.n.n.n.n.n.n.n.n.n.n.n.n.n.n.n.n.n.n.n.n.n.n.n."
};
